<?xml version="1.0" encoding="utf-8"?>
<!-- Generator: Adobe Illustrator 15.1.0, SVG Export Plug-In . SVG Version: 6.00 Build 0)  -->
<!DOCTYPE svg PUBLIC "-//W3C//DTD SVG 1.1//EN" "http://www.w3.org/Graphics/SVG/1.1/DTD/svg11.dtd">
<svg version="1.1"
	 id="svg2" xmlns:svg="http://www.w3.org/2000/svg" xmlns:rdf="http://www.w3.org/1999/02/22-rdf-syntax-ns#" xmlns:cc="http://creativecommons.org/ns#" xmlns:dc="http://purl.org/dc/elements/1.1/"
	 xmlns="http://www.w3.org/2000/svg" xmlns:xlink="http://www.w3.org/1999/xlink" x="0px" y="0px" width="20px" height="20px"
	 viewBox="267.069 69.075 20 20" enable-background="new 267.069 69.075 20 20" xml:space="preserve">
<g id="g12" transform="scale(0.1,0.1)">
	<path id="path24" fill="#7C7C7C" d="M2753.418,781.741l8.423,25.151l26.133-8.75l-8.428-25.151L2753.418,781.741"/>
	<path id="path26" fill="#7C7C7C" d="M2753.418,781.741l8.423,25.151l26.133-8.75l-8.428-25.151L2753.418,781.741"/>
	<path id="path28" fill="#7C7C7C" d="M2826.303,806.687l-12.676,4.238l4.395,13.115c1.777,5.303-1.094,11.045-6.396,12.822
		c-1.152,0.391-2.334,0.557-3.477,0.537c-4.141-0.117-7.959-2.773-9.346-6.924l-4.395-13.105l-26.133,8.75l4.395,13.105
		c1.777,5.312-1.084,11.055-6.392,12.832c-1.157,0.381-2.329,0.557-3.486,0.518c-4.136-0.098-7.954-2.754-9.346-6.914l-4.39-13.105
		l-12.671,4.238c-1.157,0.391-2.329,0.557-3.486,0.537c-4.136-0.117-7.954-2.773-9.346-6.924
		c-1.782-5.322,1.084-11.064,6.396-12.842l12.666-4.238l-8.423-25.146l-12.671,4.243c-1.152,0.386-2.329,0.552-3.481,0.522
		c-4.136-0.107-7.959-2.764-9.351-6.914c-1.777-5.308,1.089-11.055,6.396-12.832l12.666-4.248l-4.39-13.11
		c-1.777-5.308,1.084-11.05,6.396-12.832c5.308-1.772,11.05,1.089,12.822,6.396l4.395,13.11l26.133-8.745l-4.395-13.11
		c-1.777-5.312,1.084-11.06,6.392-12.832c5.308-1.782,11.05,1.079,12.837,6.387l4.385,13.11l12.676-4.238
		c5.303-1.782,11.045,1.084,12.832,6.392c1.777,5.308-1.094,11.05-6.396,12.832l-12.676,4.243l8.428,25.151l12.676-4.248
		c5.303-1.772,11.045,1.089,12.822,6.392C2834.477,799.158,2831.606,804.9,2826.303,806.687L2826.303,806.687z M2860.288,763.059
		c-20.166-67.192-49.287-82.866-116.475-62.71c-67.192,20.161-82.871,49.277-62.715,116.465
		c20.166,67.197,49.277,82.881,116.475,62.725C2864.77,859.372,2880.454,830.251,2860.288,763.059"/>
</g>
</svg>
