<?xml version="1.0" encoding="utf-8"?>
<!-- Generator: Adobe Illustrator 15.1.0, SVG Export Plug-In . SVG Version: 6.00 Build 0)  -->
<!DOCTYPE svg PUBLIC "-//W3C//DTD SVG 1.1//EN" "http://www.w3.org/Graphics/SVG/1.1/DTD/svg11.dtd">
<svg version="1.1"
	 id="svg2" xmlns:svg="http://www.w3.org/2000/svg" xmlns:rdf="http://www.w3.org/1999/02/22-rdf-syntax-ns#" xmlns:cc="http://creativecommons.org/ns#" xmlns:dc="http://purl.org/dc/elements/1.1/"
	 xmlns="http://www.w3.org/2000/svg" xmlns:xlink="http://www.w3.org/1999/xlink" x="0px" y="0px" width="20px" height="20px"
	 viewBox="267.069 69.075 20 20" enable-background="new 267.069 69.075 20 20" xml:space="preserve">
<path fill="#7C7C7C" d="M270.348,73.135c-0.167,0-0.309,0.059-0.379,0.174c-0.074,0.12-0.062,0.272,0.016,0.428l1.883,3.259
	c0.003,0.007,0.003,0.01,0,0.017l-2.959,5.222c-0.077,0.154-0.073,0.308,0,0.427c0.071,0.115,0.196,0.19,0.364,0.19h2.785
	c0.417,0,0.617-0.28,0.759-0.538c0,0,2.894-5.119,3.007-5.317c-0.011-0.018-1.915-3.339-1.915-3.339
	c-0.139-0.247-0.348-0.522-0.775-0.522H270.348z"/>
<path id="path19375" fill="#7C7C7C" d="M282.049,69.322c-0.417,0-0.597,0.262-0.746,0.53c0,0-6,10.641-6.198,10.99
	c0.01,0.019,3.957,7.26,3.957,7.26c0.138,0.248,0.352,0.531,0.779,0.531h2.781c0.169,0,0.299-0.063,0.37-0.178
	c0.074-0.118,0.072-0.276-0.006-0.431l-3.926-7.174c-0.004-0.007-0.004-0.013,0-0.019l6.166-10.903
	c0.077-0.154,0.079-0.311,0.006-0.43c-0.07-0.115-0.202-0.178-0.37-0.178H282.049z"/>
</svg>
